<svg xmlns="http://www.w3.org/2000/svg" viewBox="0 0 256 256" role="img" aria-labelledby="lion-22-title lion-22-desc">
  <title id="lion-22-title">Echo lion head</title>
  <desc id="lion-22-desc">A front-facing lion head. Nested U-shaped contours form a broad open mane. The face has a square brow, small round ears, and a soft double muzzle.</desc>
<g fill="none" stroke="#52518A" stroke-width="9" stroke-linecap="round">
    <path d="M76 40C7 65 17 160 55 195q73 70 146 0c38-35 48-130-21-155"/>
    <path d="M77 60c-49 21-40 104-13 124q64 60 128 0c27-20 36-103-13-124"/>
    <path d="M75 86c-28 20-21 76 0 91q53 47 106 0c21-15 28-71 0-91"/>
    <path d="M104 32h48m-41 17h34"/>
  </g>
  <circle cx="85" cy="83" r="17" fill="#BFB7DE"/>
  <circle cx="171" cy="83" r="17" fill="#BFB7DE"/>
  <path d="M92 72h72v63c23 29 2 59-36 59s-59-30-36-59Z" fill="#DCD7EF"/>
  <path d="M96 111h16m32 0h16" fill="none" stroke="#35345F" stroke-width="7" stroke-linecap="round"/>
  <path d="M128 151c-31-23-42 16-20 22l20-4 20 4c22-6 11-45-20-22Z" fill="#FFFFFF"/>
  <path d="M118 140h20l-10 12Zm10 12v14m-12 0 12 6 12-6" fill="none" stroke="#35345F" stroke-width="5" stroke-linejoin="round"/>
</svg>
