<svg xmlns="http://www.w3.org/2000/svg" viewBox="0 0 256 256" role="img" aria-labelledby="lion-28-title lion-28-desc">
  <title id="lion-28-title">Mineral lion head</title>
  <desc id="lion-28-desc">A front-facing lion head. Unequal crystal slabs create a broad angular mane. A low pentagonal brow rests above pale cheek diamonds and a short muzzle.</desc>
<path d="m75 25 48 15 49-21 47 54 18 78-44 60-58 25-70-31-43-57 17-80Z" fill="#394F91"/>
  <path d="m75 25 48 15-42 59-42-31Zm97-6-49 21 48 58 48-25ZM22 148l59-49-16 106Zm215 3-66-53 22 113Z" fill="#718DCD"/>
  <path d="m65 205 43-33 27 64Zm128 6-42-39-16 64Z" fill="#223868"/>
  <path d="m60 72 39 10 25-13 33 4 42-9-18 43-8 53-40 38-45-32-12-54Z" fill="#A9C5E7"/>
  <path d="m60 72 17 37 22-27Zm139-8-18 43-24-34Z" fill="#223868"/>
  <path d="m99 82 58-9-21 54-22-1Z" fill="#D5E3F1"/>
  <path d="m85 110 29 5-10 13-16-5Zm86-4-29 9 9 12 17-8Z" fill="#223868"/>
  <path d="m114 135 20 9-26 35-22-27Zm20 9 18-13 20 20-25 30Z" fill="#F4F6EF"/>
  <path d="m118 136 16-5 15 7-17 14Z" fill="#223868"/>
  <path d="m132 150-1 16-14 3m14-3 13 5" fill="none" stroke="#223868" stroke-width="5" stroke-linejoin="round"/>
</svg>
