<svg xmlns="http://www.w3.org/2000/svg" viewBox="0 0 256 256" role="img" aria-labelledby="title-87 desc-87">
  <title id="title-87">Scratched copper lion</title>
  <desc id="desc-87">A front-facing lion head. Crossed scratch fields make a jagged, shield-like mane. A broad angular face interrupts the dense etched texture.</desc>
<defs>
<clipPath id="etch-mane"><path d="M112 18 146 18 170 39 192 41 208 67 206 87 230 109 222 137 230 161 207 185 190 218 158 219 128 239 96 220 64 214 49 181 27 162 34 132 25 107 46 86 48 58 77 42 91 22Z" fill="none"/></clipPath>
</defs>
<path d="M112 18 146 18 170 39 192 41 208 67 206 87 230 109 222 137 230 161 207 185 190 218 158 219 128 239 96 220 64 214 49 181 27 162 34 132 25 107 46 86 48 58 77 42 91 22Z" fill="#EDE2C6" stroke="#49392F" stroke-width="3"/><g clip-path="url(#etch-mane)">
<path d="M-180 12  -5 245M60 12 -115 245" fill="none" stroke="#49392F" stroke-width="0.85"/><path d="M-171 12  4 245M69 12 -106 245" fill="none" stroke="#49392F" stroke-width="0.85"/><path d="M-162 12  13 245M78 12 -97 245" fill="none" stroke="#49392F" stroke-width="0.85"/><path d="M-153 12  22 245M87 12 -88 245" fill="none" stroke="#49392F" stroke-width="0.85"/><path d="M-144 12  31 245M96 12 -79 245" fill="none" stroke="#49392F" stroke-width="0.85"/><path d="M-135 12  40 245M105 12 -70 245" fill="none" stroke="#49392F" stroke-width="0.85"/><path d="M-126 12  49 245M114 12 -61 245" fill="none" stroke="#49392F" stroke-width="0.85"/><path d="M-117 12  58 245M123 12 -52 245" fill="none" stroke="#49392F" stroke-width="0.85"/><path d="M-108 12  67 245M132 12 -43 245" fill="none" stroke="#49392F" stroke-width="0.85"/><path d="M-99 12  76 245M141 12 -34 245" fill="none" stroke="#49392F" stroke-width="0.85"/><path d="M-90 12  85 245M150 12 -25 245" fill="none" stroke="#49392F" stroke-width="0.85"/><path d="M-81 12  94 245M159 12 -16 245" fill="none" stroke="#49392F" stroke-width="0.85"/><path d="M-72 12  103 245M168 12 -7 245" fill="none" stroke="#49392F" stroke-width="0.85"/><path d="M-63 12  112 245M177 12 2 245" fill="none" stroke="#49392F" stroke-width="0.85"/><path d="M-54 12  121 245M186 12 11 245" fill="none" stroke="#49392F" stroke-width="0.85"/><path d="M-45 12  130 245M195 12 20 245" fill="none" stroke="#49392F" stroke-width="0.85"/><path d="M-36 12  139 245M204 12 29 245" fill="none" stroke="#49392F" stroke-width="0.85"/><path d="M-27 12  148 245M213 12 38 245" fill="none" stroke="#49392F" stroke-width="0.85"/><path d="M-18 12  157 245M222 12 47 245" fill="none" stroke="#49392F" stroke-width="0.85"/><path d="M-9 12  166 245M231 12 56 245" fill="none" stroke="#49392F" stroke-width="0.85"/><path d="M0 12  175 245M240 12 65 245" fill="none" stroke="#49392F" stroke-width="0.85"/><path d="M9 12  184 245M249 12 74 245" fill="none" stroke="#49392F" stroke-width="0.85"/><path d="M18 12  193 245M258 12 83 245" fill="none" stroke="#49392F" stroke-width="0.85"/><path d="M27 12  202 245M267 12 92 245" fill="none" stroke="#49392F" stroke-width="0.85"/><path d="M36 12  211 245M276 12 101 245" fill="none" stroke="#49392F" stroke-width="0.85"/><path d="M45 12  220 245M285 12 110 245" fill="none" stroke="#49392F" stroke-width="0.85"/><path d="M54 12  229 245M294 12 119 245" fill="none" stroke="#49392F" stroke-width="0.85"/><path d="M63 12  238 245M303 12 128 245" fill="none" stroke="#49392F" stroke-width="0.85"/><path d="M72 12  247 245M312 12 137 245" fill="none" stroke="#49392F" stroke-width="0.85"/><path d="M81 12  256 245M321 12 146 245" fill="none" stroke="#49392F" stroke-width="0.85"/><path d="M90 12  265 245M330 12 155 245" fill="none" stroke="#49392F" stroke-width="0.85"/><path d="M99 12  274 245M339 12 164 245" fill="none" stroke="#49392F" stroke-width="0.85"/><path d="M108 12  283 245M348 12 173 245" fill="none" stroke="#49392F" stroke-width="0.85"/><path d="M117 12  292 245M357 12 182 245" fill="none" stroke="#49392F" stroke-width="0.85"/><path d="M126 12  301 245M366 12 191 245" fill="none" stroke="#49392F" stroke-width="0.85"/><path d="M135 12  310 245M375 12 200 245" fill="none" stroke="#49392F" stroke-width="0.85"/><path d="M144 12  319 245M384 12 209 245" fill="none" stroke="#49392F" stroke-width="0.85"/><path d="M153 12  328 245M393 12 218 245" fill="none" stroke="#49392F" stroke-width="0.85"/><path d="M162 12  337 245M402 12 227 245" fill="none" stroke="#49392F" stroke-width="0.85"/><path d="M171 12  346 245M411 12 236 245" fill="none" stroke="#49392F" stroke-width="0.85"/><path d="M180 12  355 245M420 12 245 245" fill="none" stroke="#49392F" stroke-width="0.85"/><path d="M189 12  364 245M429 12 254 245" fill="none" stroke="#49392F" stroke-width="0.85"/><path d="M198 12  373 245M438 12 263 245" fill="none" stroke="#49392F" stroke-width="0.85"/><path d="M207 12  382 245M447 12 272 245" fill="none" stroke="#49392F" stroke-width="0.85"/><path d="M216 12  391 245M456 12 281 245" fill="none" stroke="#49392F" stroke-width="0.85"/><path d="M225 12  400 245M465 12 290 245" fill="none" stroke="#49392F" stroke-width="0.85"/><path d="M234 12  409 245M474 12 299 245" fill="none" stroke="#49392F" stroke-width="0.85"/><path d="M243 12  418 245M483 12 308 245" fill="none" stroke="#49392F" stroke-width="0.85"/><path d="M252 12  427 245M492 12 317 245" fill="none" stroke="#49392F" stroke-width="0.85"/><path d="M261 12  436 245M501 12 326 245" fill="none" stroke="#49392F" stroke-width="0.85"/><path d="M270 12  445 245M510 12 335 245" fill="none" stroke="#49392F" stroke-width="0.85"/><path d="M279 12  454 245M519 12 344 245" fill="none" stroke="#49392F" stroke-width="0.85"/><path d="M288 12  463 245M528 12 353 245" fill="none" stroke="#49392F" stroke-width="0.85"/><path d="M297 12  472 245M537 12 362 245" fill="none" stroke="#49392F" stroke-width="0.85"/><path d="M306 12  481 245M546 12 371 245" fill="none" stroke="#49392F" stroke-width="0.85"/>
</g><path d="M72 87C47 65 71 46 91 73L106 78 129 69 151 79 167 72C187 44 211 68 184 88L178 142 157 179 129 190 100 181 76 144Z" fill="#EDE2C6" stroke="#49392F" stroke-width="3"/><path d="M83 105 111 107 103 120 89 117ZM145 106 174 105 166 118 152 119Z" fill="#49392F"/><path d="M119 82 128 91 135 81M116 115 111 138 127 148 145 137 140 115M113 142 143 142 129 157Z" fill="#49392F"/><path d="M128 157V172L112 179 99 169M128 172 145 179 158 168M115 185 129 204 142 185" fill="none" stroke="#49392F" stroke-width="2.5"/><path d="M80 128l14 -7M176 128l-14 -7M113 91l-3 11" fill="none" stroke="#49392F" stroke-width="0.9"/><path d="M83 133l14 -7M173 133l-14 -7M117 91l-3 11" fill="none" stroke="#49392F" stroke-width="0.9"/><path d="M86 138l14 -7M170 138l-14 -7M121 91l-3 11" fill="none" stroke="#49392F" stroke-width="0.9"/><path d="M89 143l14 -7M167 143l-14 -7M125 91l-3 11" fill="none" stroke="#49392F" stroke-width="0.9"/><path d="M92 148l14 -7M164 148l-14 -7M129 91l-3 11" fill="none" stroke="#49392F" stroke-width="0.9"/><path d="M95 153l14 -7M161 153l-14 -7M133 91l-3 11" fill="none" stroke="#49392F" stroke-width="0.9"/>
</svg>
