<svg xmlns="http://www.w3.org/2000/svg" viewBox="0 0 256 256" role="img" aria-labelledby="g08-title g08-desc">
  <title id="g08-title">G08 — Stained glass</title>
  <desc id="g08-desc">A front-facing lion in six touching stained-glass cloud panels, joined with dark leading. The face is built from warm geometric facets with almond eyes and a low diamond chin.</desc>
  <g id="mane" stroke="#34343F" stroke-width="5" stroke-linejoin="round">
    <g id="segment-1"><path fill="#ED6B79" d="M128 133 22 112 17 137 30 161 51 180 79 174Z"/><path fill="#F4B1AF" stroke="none" d="m26 131 5 16 10 8-7-22Z"/></g>
    <g id="segment-2"><path fill="#F1A355" d="M128 133 60 51 44 45 27 58 24 82 16 96 22 112Z"/><path fill="#F8D29D" stroke="none" d="m34 65-2 15 7 2 2-20Z"/></g>
    <g id="segment-3"><path fill="#F0D260" d="M128 133V24L107 16 87 28 72 24 58 35 60 51Z"/><path fill="#FFF0B9" stroke="none" d="m96 32 13-8 8 3-18 10Z"/></g>
    <g id="segment-4"><path fill="#75BA94" d="M128 133 196 51 198 35 184 24 169 28 149 16 128 24Z"/><path fill="#C8E4BB" stroke="none" d="m139 27 8-3 13 8-3 5Z"/></g>
    <g id="segment-5"><path fill="#75AED7" d="M128 133 234 112 240 96 232 82 229 58 212 45 196 51Z"/><path fill="#C8E5F1" stroke="none" d="m215 62 7 3 2 15-7 2Z"/></g>
    <g id="segment-6"><path fill="#AB8AC9" d="M128 133 177 174 205 180 226 161 239 137 234 112Z"/><path fill="#DBCAE8" stroke="none" d="m222 133-7 22 10-8 5-16Z"/></g>
  </g>
  <g id="face" stroke="#34343F" stroke-width="4" stroke-linejoin="round">
    <path fill="#DAB475" d="m82 97-20 9 5 24 23 10 9-24Zm92 0 20 9-5 24-23 10-9-24Z"/>
    <path fill="#F3CB7A" d="m128 99 34 13 17 37-5 40-21 29-25 14-25-14-21-29-5-40 17-37Z"/>
    <path fill="#E1AC5B" d="m94 112 18 35-15 31-15 11-5-40Zm68 0-18 35 15 31 15 11 5-40Z"/>
    <path fill="#FBE4A6" d="m128 99-16 48 16 20 16-20Z"/>
    <path fill="#FAE9C3" d="m97 178 18-15 13 10 13-10 18 15-13 22h-36Z"/>
    <path fill="#E6B66F" d="m110 200 18 8 18-8 7 18-25 14-25-14Z"/>
    <path fill="#34343F" stroke="none" d="m96 141 16 7-13 4-8-6Zm64 0 5 5-8 6-13-4Z"/>
    <path fill="#34343F" d="m117 164 11-7 11 7-11 13Z"/>
    <path fill="none" stroke-width="3" d="M128 177V189l-9 4m9-4 9 4"/>
  </g>
</svg>
